<svg xmlns="http://www.w3.org/2000/svg" viewBox="0 0 640 420" role="img" aria-labelledby="title desc">
  <title id="title">Baker mnemonic</title>
  <desc id="desc">A biker rides a giant baguette into a bakery</desc>
  <rect width="640" height="420" rx="32" fill="#fff7ed"/>
  <circle cx="112" cy="92" r="78" fill="#fed7aa" opacity="0.75"/>
  <circle cx="532" cy="322" r="92" fill="#fde68a" opacity="0.65"/>
  <rect x="58" y="88" width="524" height="252" rx="26" fill="#fffbeb" stroke="#f59e0b" stroke-width="8"/>
  <path d="M80 92h480v58H80z" fill="#f97316"/>
  <text x="320" y="130" font-family="Arial, sans-serif" font-size="30" font-weight="900" text-anchor="middle" fill="#fff">ПЕКАРНЯ</text>
  <ellipse cx="327" cy="276" rx="198" ry="42" fill="#d97706" stroke="#7c2d12" stroke-width="8"/>
  <path d="M162 261c43-25 87-33 132-25M292 236c42-20 86-21 132 0M420 250c38-7 71-3 102 13" fill="none" stroke="#fde68a" stroke-width="13" stroke-linecap="round"/>
  <circle cx="291" cy="167" r="35" fill="#fed7aa" stroke="#7c2d12" stroke-width="7"/>
  <path d="M250 158c19-45 76-47 99-8-35-2-64 2-99 8Z" fill="#111827" stroke="#111827" stroke-width="7" stroke-linejoin="round"/>
  <circle cx="278" cy="167" r="5" fill="#111827"/>
  <circle cx="306" cy="167" r="5" fill="#111827"/>
  <path d="M278 188c12 8 27 8 39 0" fill="none" stroke="#7c2d12" stroke-width="5" stroke-linecap="round"/>
  <path d="M239 206c-16 28-18 58-5 86h122c12-34 2-67-18-86-25 15-71 15-99 0Z" fill="#1f2937" stroke="#111827" stroke-width="8" stroke-linejoin="round"/>
  <path d="M239 221c-36 12-63 31-82 58" fill="none" stroke="#fed7aa" stroke-width="16" stroke-linecap="round"/>
  <path d="M348 220c47 15 82 33 105 59" fill="none" stroke="#fed7aa" stroke-width="16" stroke-linecap="round"/>
  <path d="M214 306c-15 33-31 49-57 52" fill="none" stroke="#111827" stroke-width="14" stroke-linecap="round"/>
  <path d="M358 307c22 32 46 44 78 42" fill="none" stroke="#111827" stroke-width="14" stroke-linecap="round"/>
  <circle cx="169" cy="316" r="29" fill="none" stroke="#111827" stroke-width="10"/>
  <circle cx="482" cy="316" r="29" fill="none" stroke="#111827" stroke-width="10"/>
  <text x="320" y="46" font-family="Arial, sans-serif" font-size="30" font-weight="900" text-anchor="middle" fill="#7c2d12">Baker = пекарь</text>
  <text x="96" y="382" font-family="Arial, sans-serif" font-size="27" font-weight="900" fill="#111827">БАЙКЕР</text>
  <text x="444" y="382" font-family="Arial, sans-serif" font-size="27" font-weight="900" fill="#92400e">БАГЕТ</text>
</svg>
