<svg xmlns="http://www.w3.org/2000/svg" viewBox="0 0 640 420" role="img" aria-labelledby="title desc">
  <title id="title">Fish mnemonic</title>
  <desc id="desc">A fish covered with casino chips</desc>
  <rect width="640" height="420" rx="32" fill="#e9fbff"/>
  <circle cx="520" cy="74" r="82" fill="#b8f1ff" opacity="0.65"/>
  <circle cx="116" cy="326" r="90" fill="#c9f7e8" opacity="0.8"/>
  <path d="M150 214c74-84 208-108 318-24 42-44 94-52 128-36-26 36-25 80 2 118-38 13-88 3-128-38-107 81-245 58-320-20Z" fill="#36a3c7" stroke="#0f4f70" stroke-width="8" stroke-linejoin="round"/>
  <circle cx="206" cy="197" r="13" fill="#072033"/>
  <path d="M153 214c-35-30-68-34-98-12 10 22 42 42 94 49" fill="#64c6df" stroke="#0f4f70" stroke-width="8" stroke-linejoin="round"/>
  <g font-family="Arial, sans-serif" font-weight="800" font-size="28" text-anchor="middle">
    <g transform="translate(282 166)">
      <circle r="38" fill="#ef4444" stroke="#991b1b" stroke-width="6"/>
      <text y="10" fill="#fff">Ф</text>
    </g>
    <g transform="translate(354 207)">
      <circle r="38" fill="#f59e0b" stroke="#92400e" stroke-width="6"/>
      <text y="10" fill="#fff">И</text>
    </g>
    <g transform="translate(262 244)">
      <circle r="38" fill="#22c55e" stroke="#166534" stroke-width="6"/>
      <text y="10" fill="#fff">Ш</text>
    </g>
    <g transform="translate(425 169)">
      <circle r="34" fill="#8b5cf6" stroke="#5b21b6" stroke-width="6"/>
      <text y="9" fill="#fff">К</text>
    </g>
  </g>
  <text x="320" y="365" font-family="Arial, sans-serif" font-size="30" font-weight="800" text-anchor="middle" fill="#123047">Fish = рыба из фишек</text>
</svg>
