<svg xmlns="http://www.w3.org/2000/svg" viewBox="0 0 640 420" role="img" aria-labelledby="title desc">
  <title id="title">Habit mnemonic</title>
  <desc id="desc">A small hobbit carrying a baseball bat as a habit</desc>
  <rect width="640" height="420" rx="32" fill="#f0fdf4"/>
  <circle cx="128" cy="96" r="76" fill="#bbf7d0" opacity="0.75"/>
  <circle cx="520" cy="330" r="86" fill="#fed7aa" opacity="0.65"/>
  <path d="M92 313c85-61 180-73 272-34 58 24 113 21 184-12" fill="none" stroke="#86efac" stroke-width="22" stroke-linecap="round"/>
  <circle cx="292" cy="126" r="48" fill="#fed7aa" stroke="#7c2d12" stroke-width="7"/>
  <path d="M241 118c21-59 98-68 132-18-40 0-86 12-132 18Z" fill="#166534" stroke="#052e16" stroke-width="7" stroke-linejoin="round"/>
  <circle cx="273" cy="129" r="5" fill="#111827"/>
  <circle cx="313" cy="129" r="5" fill="#111827"/>
  <path d="M278 151c12 8 26 8 39 0" fill="none" stroke="#7c2d12" stroke-width="5" stroke-linecap="round"/>
  <path d="M237 180c-36 42-41 112-18 163h138c26-59 10-122-24-163-25 18-68 18-96 0Z" fill="#2563eb" stroke="#1e3a8a" stroke-width="8" stroke-linejoin="round"/>
  <path d="M238 223c-42 10-70 37-86 78" fill="none" stroke="#fed7aa" stroke-width="18" stroke-linecap="round"/>
  <path d="M350 210c51-43 111-68 166-64 26 2 39 21 28 40-12 21-45 23-85 33-33 8-69 24-102 49Z" fill="#92400e" stroke="#451a03" stroke-width="9" stroke-linejoin="round"/>
  <circle cx="526" cy="167" r="18" fill="#fde68a" stroke="#451a03" stroke-width="7"/>
  <path d="M263 342c-5 23-18 39-43 40" fill="none" stroke="#7c2d12" stroke-width="13" stroke-linecap="round"/>
  <path d="M329 342c12 26 31 39 58 36" fill="none" stroke="#7c2d12" stroke-width="13" stroke-linecap="round"/>
  <text x="320" y="45" font-family="Arial, sans-serif" font-size="30" font-weight="900" text-anchor="middle" fill="#14532d">Habit = привычка</text>
  <text x="156" y="379" font-family="Arial, sans-serif" font-size="27" font-weight="900" fill="#14532d">ХОББИТ</text>
  <text x="457" y="126" font-family="Arial, sans-serif" font-size="27" font-weight="900" fill="#7c2d12">БИТА</text>
</svg>
